<svg xmlns="http://www.w3.org/2000/svg" xmlns:xlink="http://www.w3.org/1999/xlink" viewBox="0 0 287 280.86"><defs><style>.cls-1,.cls-9{fill:#fff;}.cls-2,.cls-20,.cls-22,.cls-4{fill:none;}.cls-3{fill:#f2f2f2;}.cls-4{stroke:#0078d7;stroke-width:0.8px;stroke-dasharray:3.17 3.17;}.cls-22,.cls-4{stroke-miterlimit:10;}.cls-5{opacity:0.7;}.cls-6{fill:#32a0da;}.cls-7,.cls-8{fill:#004880;}.cls-8,.cls-9{fill-rule:evenodd;}.cls-10{fill:#0078d7;}.cls-11{clip-path:url(#clip-path);}.cls-12{fill:#73aa24;}.cls-13{fill:#f05125;}.cls-14{fill:#ffb900;}.cls-15{clip-path:url(#clip-path-2);}.cls-16{fill:#6d4829;}.cls-17{fill:#40c5af;}.cls-18{fill:#e1bc8f;}.cls-19{fill:#c49970;}.cls-20,.cls-22{stroke:#fff;}.cls-20{stroke-linecap:round;stroke-linejoin:round;stroke-width:0.79px;}.cls-21{fill:#333;}.cls-22{stroke-width:1.27px;}.cls-23{fill:#7fbb42;}.cls-24{fill:#fdb813;}</style><clipPath id="clip-path"><path class="cls-1" d="M46.88,88.77a1.73,1.73,0,0,1-3.44,0,1.72,1.72,0,1,1,3.44,0Z"/></clipPath><clipPath id="clip-path-2"><circle class="cls-2" cx="137.26" cy="141.5" r="75"/></clipPath></defs><title>smc-webcore-hero-20170911</title><g id="background"><rect id="background-2" data-name="background" class="cls-3" width="287" height="280"/></g><g id="dashed-circle"><circle class="cls-4" cx="137.07" cy="140.08" r="101.9"/></g><g id="hololens"><circle class="cls-1" cx="225.3" cy="88.37" r="17.98"/><g class="cls-5"><circle class="cls-6" cx="225.29" cy="88.37" r="17.98" transform="translate(135.02 312.91) rotate(-89.51)"/><path class="cls-7" d="M238.76,84s-.23-2-13.18-2v0H225v0c-12.93,0-13.18,2-13.18,2a13.32,13.32,0,0,0,.3,4.89,2.52,2.52,0,0,1,.33.08v.76a.26.26,0,0,0,.26.27h.39a.26.26,0,0,0,.26-.27v-.55a.77.77,0,0,1,.2,0,7.36,7.36,0,0,0,4.06,4.52,12.66,12.66,0,0,0,5,.9h0c1.32,0,1.37-1.26,2.58-1.29s1.24,1.29,2.58,1.29h0a12.59,12.59,0,0,0,5-.9A7.31,7.31,0,0,0,237,89.25h0a.76.76,0,0,1,.19,0v.55a.26.26,0,0,0,.27.27h.4a.27.27,0,0,0,.26-.27V89a2.36,2.36,0,0,1,.31-.08A13,13,0,0,0,238.76,84Z"/><path class="cls-1" d="M237,89.25a31.57,31.57,0,0,1-3.16.49l-.14,0c-1.25.13-2.43.2-3.45.25h0l-2,0h-.65a1,1,0,0,1-.89-.63h-2.91a1,1,0,0,1-.9.63h-.65l-2,0h0c-1,0-2.13-.11-3.34-.23l-.12,0c-1.07-.13-2.19-.28-3.28-.5a7.4,7.4,0,0,0,4.06,4.56,12.45,12.45,0,0,0,5,.91l0,0h0c1.35,0,1.39-1.28,2.63-1.31s1.27,1.31,2.63,1.31h0l0,0C231,94.7,235.34,94.08,237,89.25Z"/></g></g><g id="laptop"><circle class="cls-1" cx="136.69" cy="38.18" r="17.98"/><g class="cls-5"><circle class="cls-6" cx="136.69" cy="38.18" r="17.98"/><path class="cls-8" d="M148.4,46.83c.36.38.36.38,0,.38H125.06c-.36,0-.36,0-.36-.38l1.8-3.38c.36-.38.72-.75,1.08-.75h18.31c.36,0,.72.38,1.08.75Z"/><path class="cls-8" d="M147.26,42c0,.37-.38.73-1.15.73H127.35c-.77,0-1.15-.37-1.15-.73V30.25q0-1.1,1.15-1.1h18.76q1.15,0,1.15,1.1Z"/><rect class="cls-1" x="127.71" y="30.66" width="18.05" height="10.53"/></g></g><g id="search"><circle class="cls-1" cx="225.28" cy="190.06" r="17.98"/><g class="cls-5"><circle class="cls-6" cx="225.28" cy="190.06" r="17.98"/><path class="cls-8" d="M234.1,200.07l-7-6.89,1.73-1.32,6.59,6.46a1.32,1.32,0,0,1,0,1.74.82.82,0,0,1-1.31,0"/><circle class="cls-7" cx="222.67" cy="187.57" r="7.83" transform="translate(-1.79 2.15) rotate(-0.55)"/><circle class="cls-1" cx="222.66" cy="187.46" r="6.09" transform="translate(-1.79 2.15) rotate(-0.55)"/></g></g><g id="chat"><circle class="cls-1" cx="48.98" cy="190.06" r="17.98"/><g class="cls-5"><circle class="cls-6" cx="48.98" cy="190.06" r="17.98" transform="translate(-142.25 234.25) rotate(-88.56)"/><path class="cls-8" d="M48.45,181.26,38.77,181a1.77,1.77,0,0,0-1.6,1.9l-.16,6.2a1.77,1.77,0,0,0,1.5,2l1.94,0-.07,2.71,2.78-2.64,5,.13a1.77,1.77,0,0,0,1.6-1.9l.16-6.2A1.77,1.77,0,0,0,48.45,181.26Z"/><path class="cls-9" d="M59.52,186.33l-8.91-.22-.1,4a1.86,1.86,0,0,1-2,1.95h-.39l-.06,2.4a1.69,1.69,0,0,0,1.51,1.64l5,.13,2.64,2.86.07-2.8,1.94,0a1.69,1.69,0,0,0,1.59-1.56L61,188A1.69,1.69,0,0,0,59.52,186.33Z"/></g></g><g id="controller"><circle class="cls-1" cx="49.16" cy="88.75" r="17.98"/><g class="cls-5"><circle class="cls-6" cx="49.16" cy="88.75" r="17.98"/><path class="cls-1" d="M58.21,81.59v-.54a5.68,5.68,0,0,0-3.83-.87l-.17.34a7.87,7.87,0,0,0-1.56.53c-.7.54-1.39.54-3.49.54s-2.78,0-3.48-.54a7.86,7.86,0,0,0-1.56-.53l-.18-.34a5.64,5.64,0,0,0-3.82.87v.54A24.06,24.06,0,0,0,37,93c0,2.8.53,4.37,1.92,4.37,1.73,0,3.31-1.58,4.53-2.8C45,92.8,49.15,92.8,49.15,92.8s4.19,0,5.75,1.76c1.22,1.22,2.78,2.8,4.53,2.8,1.39,0,1.92-1.58,1.92-4.37A24.06,24.06,0,0,0,58.21,81.59Z"/><path class="cls-7" d="M49,83.86a.76.76,0,0,0-.7.71.7.7,0,1,0,1.39,0A.75.75,0,0,0,49,83.86Zm0,2.45a1.72,1.72,0,0,1-1.56-1.75,1.56,1.56,0,1,1,3.12,0A1.72,1.72,0,0,1,49,86.32Z"/><path class="cls-10" d="M56.82,86.32a.81.81,0,0,1-.69.88.82.82,0,0,1-.87-.88.93.93,0,0,1,.87-.88C56.46,85.44,56.82,86,56.82,86.32Z"/><path class="cls-10" d="M56.82,82.64c0,.34-.35.87-.69.87a.93.93,0,0,1-.87-.87.82.82,0,0,1,.87-.88A.81.81,0,0,1,56.82,82.64Z"/><path class="cls-10" d="M54.9,84.39a.8.8,0,0,1-.69.88.82.82,0,0,1-.87-.88.93.93,0,0,1,.87-.88C54.56,83.51,54.9,84,54.9,84.39Z"/><path class="cls-10" d="M58.73,84.39a.81.81,0,0,1-.7.88.82.82,0,0,1-.87-.88.93.93,0,0,1,.87-.88C58.38,83.51,58.73,84,58.73,84.39Z"/><path class="cls-7" d="M43.59,84.39A1.61,1.61,0,0,1,41.85,86a1.58,1.58,0,0,1,0-3.15A1.61,1.61,0,0,1,43.59,84.39Z"/><path class="cls-7" d="M54,88.77a1.57,1.57,0,1,1-3.14,0,1.58,1.58,0,1,1,3.14,0Z"/><path class="cls-7" d="M45.15,87a1.62,1.62,0,0,0-1.56,1.76,1.56,1.56,0,0,0,1.56,1.57,1.72,1.72,0,0,0,1.75-1.57A1.76,1.76,0,0,0,45.15,87Zm0,3.86a2.26,2.26,0,0,1-2.09-2.1,2.3,2.3,0,0,1,2.09-2.28,2.17,2.17,0,0,1,2.09,2.28A2.12,2.12,0,0,1,45.15,90.87Z"/><path class="cls-1" d="M46.88,88.77a1.73,1.73,0,0,1-3.44,0,1.72,1.72,0,1,1,3.44,0Z"/><g class="cls-11"><path class="cls-7" d="M42.66,88h1.25a.73.73,0,0,0,.78-.79V85.94h-1.4v.47h-.62Zm5-1.57H47v-.47H45.78v1.25a.74.74,0,0,0,.79.79h1.08Zm-5,4.41h.62v.47h1.4V89.87a.83.83,0,0,0-.78-.79H42.66Zm5,0H47v.47H45.78V89.87a.85.85,0,0,1,.79-.79h1.08Z"/></g></g></g><g id="mail"><circle class="cls-1" cx="137.26" cy="241.64" r="17.98"/><g class="cls-5"><circle class="cls-6" cx="137.26" cy="241.64" r="17.98"/><rect class="cls-1" x="126.03" y="233.86" width="22.47" height="15.56"/><polygon class="cls-7" points="126.03 233.86 137.26 243.49 148.5 233.86 126.03 233.86"/></g></g><g id="green-dot"><circle class="cls-12" cx="270.71" cy="117.42" r="4"/></g><g id="red-dot"><circle class="cls-13" cx="31.7" cy="237.39" r="4"/></g><g id="yellow-dot"><circle class="cls-14" cx="84.12" cy="24.9" r="3.5"/></g><g id="blue-dot"><circle class="cls-6" cx="232.22" cy="248.63" r="3"/></g><g id="agent"><g class="cls-15"><polygon class="cls-16" points="157.95 161.22 116.47 161.22 116.47 136.34 157.95 136.34 157.95 161.22 157.95 161.22"/><path class="cls-17" d="M110.91,153.77H163.7c10.61,0,19.27,9.44,19.27,20.64v17.1H163.7V254H110.91V191.51H91.64v-17.1c0-11.21,8.66-20.64,19.27-20.64Z"/><polygon class="cls-17" points="91.56 280.86 91.56 191.51 106.64 191.51 106.64 280.86 91.56 280.86 91.56 280.86"/><polygon class="cls-18" points="136.94 160.4 128.21 155.48 128.21 131.14 145.95 131.14 145.95 155.48 136.94 160.4 136.94 160.4"/><path class="cls-19" d="M162.55,120.2a2.7,2.7,0,0,1-2.46,2.73H114.52a2.7,2.7,0,0,1-2.46-2.73v-5.47a2.45,2.45,0,0,1,2.46-2.46h45.57a2.45,2.45,0,0,1,2.46,2.46Z"/><polygon class="cls-20" points="137.17 160.4 128.44 155.48 128.44 131.14 146.18 131.14 146.18 155.48 137.17 160.4 137.17 160.4"/><path class="cls-19" d="M128.44,145.36a30.61,30.61,0,0,0,8.73,1.09,33.84,33.84,0,0,0,9-1.09V131.14H128.44Z"/><path class="cls-18" d="M116.7,103.8v32.54a35.36,35.36,0,0,0,20.47,6.84,37.07,37.07,0,0,0,21-6.84V103.8Z"/><path class="cls-16" d="M145.9,86a18.26,18.26,0,0,0-8.46-1.91,20.81,20.81,0,0,0-21,20.78v10.39C132,113.37,144.26,101.34,145.9,86Z"/><path class="cls-16" d="M128.71,86a18.61,18.61,0,0,1,8.73-1.91,20.75,20.75,0,0,1,20.74,20.78v10.39A33.92,33.92,0,0,1,128.71,86Z"/><path class="cls-1" d="M128.44,131.14a11.12,11.12,0,0,0,9,4.38,10.6,10.6,0,0,0,8.73-4.38Z"/><path class="cls-19" d="M134.44,125.95a3.91,3.91,0,0,0,3,1.37,3.36,3.36,0,0,0,2.73-1.37Z"/><path class="cls-21" d="M129.26,117.47a1.53,1.53,0,0,1-1.64,1.37,1.37,1.37,0,0,1,0-2.73,1.53,1.53,0,0,1,1.64,1.37Z"/><path class="cls-21" d="M148.63,117.47a1.53,1.53,0,0,1-1.64,1.37,1.37,1.37,0,0,1,0-2.73,1.53,1.53,0,0,1,1.64,1.37Z"/><rect class="cls-1" x="132.26" y="188.29" width="10.09" height="16.6"/><line class="cls-22" x1="132.71" y1="188.62" x2="129.3" y2="155.96"/><line class="cls-22" x1="141.9" y1="188.54" x2="145.28" y2="155.97"/><rect class="cls-13" x="134.12" y="193.4" width="2.99" height="2.99"/><rect class="cls-23" x="137.5" y="193.4" width="2.99" height="2.99"/><rect class="cls-24" x="137.5" y="196.79" width="2.99" height="2.99"/><rect class="cls-6" x="134.12" y="196.79" width="2.99" height="2.99"/><polygon class="cls-17" points="167.89 279.76 167.89 190.41 182.97 190.41 182.97 279.76 167.89 279.76 167.89 279.76"/></g><circle class="cls-1" cx="137.26" cy="141.5" r="75"/><g class="cls-15"><polygon class="cls-16" points="157.95 161.22 116.47 161.22 116.47 136.34 157.95 136.34 157.95 161.22 157.95 161.22"/><path class="cls-7" d="M110.91,153.77H163.7c10.61,0,19.27,9.44,19.27,20.64v17.1H163.7V254H110.91V191.51H91.64v-17.1c0-11.21,8.66-20.64,19.27-20.64Z"/><polygon class="cls-7" points="106.72 279.76 109.72 190.41 91.64 190.41 91.64 279.76 106.72 279.76 106.72 279.76"/><path class="cls-18" d="M128.21,155.48h0V131.14h18.05v24.34l-.15.14A13.09,13.09,0,0,1,128.21,155.48Z"/><path class="cls-19" d="M162.55,121.7a2.7,2.7,0,0,1-2.46,2.73H114.52a2.7,2.7,0,0,1-2.46-2.73v-5.47a2.45,2.45,0,0,1,2.46-2.46h45.57a2.45,2.45,0,0,1,2.46,2.46Z"/><path class="cls-19" d="M128.21,145.36a31.67,31.67,0,0,0,8.89,1.09,35,35,0,0,0,9.17-1.09V131.14H128.21Z"/><path class="cls-18" d="M116.7,103.8v32.54a35.36,35.36,0,0,0,20.47,6.84,37.07,37.07,0,0,0,21-6.84V103.8Z"/><path class="cls-16" d="M145.9,86a18.26,18.26,0,0,0-8.46-1.91,20.81,20.81,0,0,0-21,20.78v10.39C132,113.37,144.26,101.34,145.9,86Z"/><path class="cls-16" d="M128.71,86a18.61,18.61,0,0,1,8.73-1.91,20.75,20.75,0,0,1,20.74,20.78v10.39A33.92,33.92,0,0,1,128.71,86Z"/><path class="cls-1" d="M128.44,131.14a11.12,11.12,0,0,0,9,4.38,10.6,10.6,0,0,0,8.73-4.38Z"/><path class="cls-19" d="M134.44,125.95a3.91,3.91,0,0,0,3,1.37,3.36,3.36,0,0,0,2.73-1.37Z"/><rect class="cls-1" x="131.35" y="188.29" width="11.91" height="16.6"/><line class="cls-22" x1="132.71" y1="188.62" x2="127.51" y2="152.75"/><line class="cls-22" x1="141.9" y1="188.54" x2="147.01" y2="152.75"/><rect class="cls-13" x="134.12" y="193.4" width="2.99" height="2.99"/><rect class="cls-23" x="137.5" y="193.4" width="2.99" height="2.99"/><rect class="cls-24" x="137.5" y="196.79" width="2.99" height="2.99"/><rect class="cls-6" x="134.12" y="196.79" width="2.99" height="2.99"/><polygon class="cls-7" points="167.89 279.76 164.89 190.41 182.97 190.41 182.97 279.76 167.89 279.76 167.89 279.76"/></g><circle class="cls-21" cx="126.94" cy="117.5" r="1.5"/><circle class="cls-21" cx="147.94" cy="117.5" r="1.5"/></g></svg>